<?xml version="1.0" encoding="UTF-8"?>
<svg version="1.1" xmlns="http://www.w3.org/2000/svg" width="1080" height="1080">
<path d="M0 0 C356.4 0 712.8 0 1080 0 C1080 356.4 1080 712.8 1080 1080 C723.6 1080 367.2 1080 0 1080 C0 723.6 0 367.2 0 0 Z " fill="#1B1E2C" transform="translate(0,0)"/>
<path d="M0 0 C1.16397308 -0.00350464 2.32794617 -0.00700928 3.52719116 -0.01062012 C7.34834887 -0.01937265 11.16931915 -0.01361072 14.99047852 -0.00683594 C17.66268643 -0.00818454 20.33488881 -0.01012413 23.00709534 -0.01263428 C28.59768679 -0.01626112 34.18822521 -0.01150917 39.77880859 -0.00195312 C46.21583959 0.00892363 52.65274378 0.00540636 59.08977169 -0.00560594 C64.64340109 -0.01472191 70.19699262 -0.01594298 75.7506271 -0.0107286 C79.05570924 -0.00763177 82.36071972 -0.00793658 85.66580009 -0.01380157 C89.35541072 -0.01891237 93.04478207 -0.0110924 96.734375 0 C97.81055588 -0.00404846 98.88673676 -0.00809692 99.99552917 -0.01226807 C115.40174278 0.07301573 128.26762777 3.73014715 139.67016602 14.56347656 C148.54463614 25.13926998 151.22814468 37.195524 151.25415039 50.64135742 C151.2690451 52.49165558 151.2690451 52.49165558 151.28424072 54.3793335 C151.30837042 57.74978385 151.32335257 61.11998741 151.33226204 64.49049449 C151.3381501 66.60413767 151.34636483 68.71775981 151.35527039 70.83139229 C151.38259221 77.46715653 151.40193554 84.10287186 151.40967417 90.73868841 C151.41860971 98.35581029 151.45359546 105.97220975 151.51167536 113.58911222 C151.55518178 119.50369394 151.57509731 125.41807455 151.5777564 131.33281428 C151.57983451 134.85242352 151.59125419 138.37135261 151.62739563 141.89079094 C151.80511743 160.24935131 151.85028815 176.67559114 139.07641602 191.20800781 C135.67078053 194.46476306 132.02464529 196.94749278 127.93188477 199.25878906 C126.96250977 199.83628906 125.99313477 200.41378906 124.99438477 201.00878906 C121.37713969 202.48521562 117.84781523 203.1744601 114.00610352 203.82910156 C111.95072181 204.05696211 111.95072181 204.05696211 110.93188477 205.25878906 C107.82089376 205.35955412 104.73206331 205.39492467 101.62060547 205.38818359 C100.64142654 205.38993591 99.66224762 205.39168823 98.65339661 205.39349365 C95.38813544 205.39792322 92.12292782 205.39496561 88.85766602 205.39160156 C86.58009328 205.39227542 84.30252061 205.39324613 82.02494812 205.39450073 C77.2270744 205.3959801 72.42921922 205.39381969 67.63134766 205.38916016 C61.54312015 205.38353026 55.45493739 205.38669684 49.36671162 205.39273262 C44.64686258 205.39639008 39.92702369 205.39517503 35.2071743 205.39260483 C32.96736839 205.39194624 30.7275615 205.39272579 28.48775673 205.39508438 C17.27788618 205.40427828 6.08017647 205.3170896 -5.12207031 204.87548828 C-6.45202168 204.82997424 -6.45202168 204.82997424 -7.80884075 204.78354073 C-21.60518791 204.15686381 -33.79957401 199.26087457 -43.25561523 189.00878906 C-53.42923889 176.45115551 -54.2205326 161.63456363 -54.21337891 146.14038086 C-54.21673752 145.07715607 -54.22009613 144.01393127 -54.22355652 142.91848755 C-54.23299303 139.43164882 -54.23500588 135.94485848 -54.23608398 132.45800781 C-54.2393014 130.01479574 -54.24266584 127.57158387 -54.24617004 125.12837219 C-54.2521429 120.01697341 -54.25401182 114.90559148 -54.25341797 109.79418945 C-54.2533164 103.27147601 -54.26697156 96.74887154 -54.28419018 90.22618389 C-54.2953532 85.18245454 -54.29733586 80.13875119 -54.29680824 75.09501076 C-54.29798176 72.69146156 -54.30236791 70.28791154 -54.31014061 67.88437462 C-54.42641349 28.22051985 -54.42641349 28.22051985 -40.06811523 13.16113281 C-28.61315217 2.21755202 -15.31661472 -0.05751107 0 0 Z " fill="#589AF8" transform="translate(187.068115234375,465.7412109375)"/>
<path d="M0 0 C0.67740234 -0.01861084 1.35480469 -0.03722168 2.05273438 -0.05639648 C7.08646826 0.00720442 9.92707575 1.38594674 13.8125 4.5 C17.89264799 9.02124507 19.1363237 12.28910809 19.0234375 18.44140625 C18.53535094 23.20476951 16.58158429 25.85055105 13 28.875 C9.52658007 30.6457631 7.64896321 31.01152843 3.8125 30.5 C2.8225 29.84 1.8325 29.18 0.8125 28.5 C0.8125 27.84 0.8125 27.18 0.8125 26.5 C1.43125 25.901875 2.05 25.30375 2.6875 24.6875 C6.03415813 21.24241075 6.92882263 18.08292818 7.1875 13.375 C7.17121592 9.59027817 7.17121592 9.59027817 5.25 7.5 C1.83751682 6.1000069 -0.52322491 6.0577599 -4.1875 6.5 C-11.70626854 10.18266214 -15.69981383 16.67011463 -18.5 24.3125 C-19.07647432 26.0370582 -19.64114252 27.76566522 -20.1875 29.5 C-20.5175 30.49 -20.8475 31.48 -21.1875 32.5 C-21.95023542 42.92821869 -21.62136326 51.15662633 -14.75 59.4375 C-8.7902532 64.23436938 -2.55488297 64.24373819 4.8125 63.5 C11.8133616 62.01464898 11.8133616 62.01464898 17.8125 58.5 C17.92065225 56.73050905 17.99816083 54.95912513 18.0625 53.1875 C18.75907807 44.4542824 21.12855487 36.47544613 27.75 30.4375 C29.08093179 29.42697771 30.43320372 28.44343866 31.8125 27.5 C33.1428125 26.5409375 33.1428125 26.5409375 34.5 25.5625 C41.17124766 23.42266584 48.89590164 23.21973826 55.375 26.125 C59.07613791 28.40984624 61.11084387 30.38766436 62.8125 34.5 C63.12635731 39.1869359 63.04375075 43.81074874 62.8125 48.5 C64.08700447 47.90361667 65.35696877 47.29752584 66.625 46.6875 C67.33269531 46.35105469 68.04039062 46.01460937 68.76953125 45.66796875 C71.5147614 44.09851595 73.47174449 42.73589342 74.33666992 39.59887695 C74.40474854 38.90238037 74.47282715 38.20588379 74.54296875 37.48828125 C74.62353516 36.73095703 74.70410156 35.97363281 74.78710938 35.19335938 C74.89249023 34.01483398 74.89249023 34.01483398 75 32.8125 C75.08185547 32.01521484 75.16371094 31.21792969 75.24804688 30.39648438 C75.44800845 28.432156 75.63182254 26.46619588 75.8125 24.5 C77.43713842 24.44604522 79.06228541 24.40722805 80.6875 24.375 C82.04488281 24.34019531 82.04488281 24.34019531 83.4296875 24.3046875 C85.8125 24.5 85.8125 24.5 87.8125 26.5 C88.2265625 28.6640625 88.2265625 28.6640625 88.4375 31.125 C88.54964844 32.35089844 88.54964844 32.35089844 88.6640625 33.6015625 C88.71304688 34.22804688 88.76203125 34.85453125 88.8125 35.5 C89.34037109 34.81164062 89.34037109 34.81164062 89.87890625 34.109375 C93.87655907 29.14101275 97.62399735 25.26416744 104.08203125 24.0859375 C108.10749637 23.83225976 110.3315119 24.22514966 113.875 26.25 C118.22952962 33.55437227 115.74940272 42.62378686 114.2578125 50.5859375 C113.59819831 54.90236016 113.63912668 59.14640332 113.8125 63.5 C118.07494364 63.33284535 120.21933375 63.04410738 123.41015625 60.1171875 C126.7437303 55.84233162 127.26953282 50.98924746 128.0625 45.75 C128.22234375 44.8115625 128.3821875 43.873125 128.546875 42.90625 C129.56015748 36.79277903 130.27097312 30.67206107 130.8125 24.5 C131.93422607 24.47123779 131.93422607 24.47123779 133.07861328 24.44189453 C134.37001221 24.40878174 134.37001221 24.40878174 135.6875 24.375 C138.4296875 24.3046875 138.4296875 24.3046875 140.8125 24.5 C143.21013185 26.89763185 143.15530586 27.83273498 143.4375 31.125 C143.54964844 32.35089844 143.54964844 32.35089844 143.6640625 33.6015625 C143.71304688 34.22804688 143.76203125 34.85453125 143.8125 35.5 C144.16441406 35.04109375 144.51632812 34.5821875 144.87890625 34.109375 C148.87655907 29.14101275 152.62399735 25.26416744 159.08203125 24.0859375 C163.10749637 23.83225976 165.3315119 24.22514966 168.875 26.25 C173.22952962 33.55437227 170.74940272 42.62378686 169.2578125 50.5859375 C168.59819831 54.90236016 168.63912668 59.14640332 168.8125 63.5 C173.7771554 63.14235111 173.7771554 63.14235111 178.046875 60.8046875 C180.29381316 57.87173725 180.11922847 56.50781528 179.8125 52.875 C179.56404477 45.0295483 181.69387868 38.94045538 186.4375 32.6875 C192.02556767 26.80679039 198.4545027 24.21939871 206.5 23.8125 C211.71301301 24.03433034 215.06633579 24.88605152 218.6953125 28.72265625 C220.65330568 31.8376454 220.50845713 33.95694554 219.8125 37.5 C216.70166449 44.26268589 210.99983045 46.80335071 204.40234375 49.4765625 C200.46831948 50.88204028 197.04382344 51.90948291 192.8125 51.5 C193.38134559 52.9432944 193.96826242 54.37947323 194.5625 55.8125 C194.88734375 56.61300781 195.2121875 57.41351562 195.546875 58.23828125 C197.03474437 60.89715892 198.14034948 62.03402854 200.8125 63.5 C208.74533963 64.66474233 215.0720242 63.77760964 221.8125 59.5 C223.5984621 57.7140379 223.02705841 54.91775815 223.125 52.5 C223.85951953 42.46887512 227.34385855 35.30783573 234.8125 28.5 C240.22562114 24.26727312 245.99124144 23.75302731 252.734375 23.99609375 C256.66827943 24.64009587 258.95143565 25.70554936 261.6953125 28.5859375 C263.79198624 32.17814075 263.7288781 35.51925354 262.8125 39.5 C261.1875 42.5 261.1875 42.5 258.8125 44.5 C255.5625 45.3125 255.5625 45.3125 252.8125 45.5 C251.6875 43.8125 251.6875 43.8125 250.8125 41.5 C251.41898579 39.81050386 252.09090576 38.14363134 252.8125 36.5 C253.06374826 33.83238236 253.06374826 33.83238236 252.8125 31.5 C251.71895094 30.20475652 251.71895094 30.20475652 249.0625 30.125 C245.69526891 30.23847251 245.69526891 30.23847251 243.125 32.5 C238.0135312 39.13109466 237.21126541 45.27698784 237.3828125 53.4921875 C238.0192684 57.94737879 239.43544338 59.60538004 242.8125 62.5 C247.25877248 64.72313624 252.98903178 64.01780522 257.8125 63.5 C261.82917649 61.86153836 264.76755029 59.54494971 267.8125 56.5 C268.32342726 54.48501924 268.73812433 52.44516826 269.1015625 50.3984375 C269.32070313 49.18671875 269.53984375 47.975 269.765625 46.7265625 C269.98734375 45.45554687 270.2090625 44.18453125 270.4375 42.875 C270.66695312 41.59625 270.89640625 40.3175 271.1328125 39 C271.69976401 35.83452071 272.25933235 32.66791213 272.8125 29.5 C270.8325 29.5 268.8525 29.5 266.8125 29.5 C267.1425 27.85 267.4725 26.2 267.8125 24.5 C270.1225 24.5 272.4325 24.5 274.8125 24.5 C274.87308594 23.50097656 274.93367188 22.50195312 274.99609375 21.47265625 C275.07988281 20.18230469 275.16367187 18.89195312 275.25 17.5625 C275.33121094 16.27472656 275.41242188 14.98695313 275.49609375 13.66015625 C275.8125 10.5 275.8125 10.5 276.8125 9.5 C280.30475533 9.23643356 282.98489929 9.1604715 286.25 10.5 C288.64804453 13.56949699 288.24502925 16.80577477 287.8125 20.5 C287.4825 21.82 287.1525 23.14 286.8125 24.5 C290.1125 24.5 293.4125 24.5 296.8125 24.5 C295.8125 28.5 295.8125 28.5 294.8125 29.5 C293.29321962 29.57179964 291.77082518 29.58392007 290.25 29.5625 C289.42371094 29.55347656 288.59742188 29.54445313 287.74609375 29.53515625 C286.78896484 29.51775391 286.78896484 29.51775391 285.8125 29.5 C285.13805232 33.540408 284.47432413 37.58250666 283.8125 41.625 C283.52632812 43.33816406 283.52632812 43.33816406 283.234375 45.0859375 C282.96367188 46.74882813 282.96367188 46.74882813 282.6875 48.4453125 C282.51992188 49.46125488 282.35234375 50.47719727 282.1796875 51.52392578 C281.38980246 57.16206165 281.38980246 57.16206165 282.8125 62.5 C289.01794629 63.06890395 289.01794629 63.06890395 294.25 60.125 C296.79940417 57.78017144 296.79940417 57.78017144 297.8125 55.5 C298.4725 55.5 299.1325 55.5 299.8125 55.5 C299.67436725 61.02531017 297.33610176 63.8722744 293.69921875 67.73046875 C289.29353694 71.86250573 284.99514612 73.17257201 279.0625 72.9921875 C273.8556595 71.85319114 270.64652611 67.75103916 267.8125 63.5 C267.02875 64.2425 266.245 64.985 265.4375 65.75 C258.7619118 71.22460621 251.34290828 73.26179399 242.77734375 72.953125 C235.42753906 71.82983469 229.59050748 68.07434206 224.8125 62.5 C224.33941406 62.97050781 223.86632812 63.44101562 223.37890625 63.92578125 C215.83095905 71.03232803 209.02565561 73.14088554 198.67578125 72.8515625 C191.71971928 71.99747576 186.88482769 68.06509492 181.8125 63.5 C181.11125 64.428125 180.41 65.35625 179.6875 66.3125 C176.64797192 69.91395764 173.62428424 72.1014794 168.828125 72.78125 C164.31160692 72.9850027 161.3039838 72.3753396 157.8125 69.5 C155.31731308 65.86191278 155.50722219 62.0644491 155.5625 57.8125 C155.56636719 57.09715088 155.57023438 56.38180176 155.57421875 55.64477539 C155.64960081 51.02919468 156.15514044 46.84473219 157.3671875 42.40625 C158.06915082 39.40135437 157.94321286 36.57175218 157.8125 33.5 C152.58439186 34.16246576 150.76733485 36.10320767 147.51953125 40.05859375 C140.61805966 49.92911948 138.74360487 60.76317805 137.8125 72.5 C134.43134349 72.79036649 131.18330851 72.94908891 127.8125 72.5 C125.1875 70 125.1875 70 123.8125 67.5 C123.3278125 67.8609375 122.843125 68.221875 122.34375 68.59375 C117.21002209 72.14786932 114.05226704 73.3183301 107.8125 72.5 C105.0229457 71.28715031 103.41497133 70.37842848 101.6953125 67.87109375 C100.45409269 64.53737505 100.51689768 61.32021385 100.5625 57.8125 C100.56636719 57.09715088 100.57023438 56.38180176 100.57421875 55.64477539 C100.64960081 51.02919468 101.15514044 46.84473219 102.3671875 42.40625 C103.06915082 39.40135437 102.94321286 36.57175218 102.8125 33.5 C97.58439186 34.16246576 95.76733485 36.10320767 92.51953125 40.05859375 C85.61805966 49.92911948 83.74360487 60.76317805 82.8125 72.5 C81.18786158 72.55395478 79.56271459 72.59277195 77.9375 72.625 C77.03257812 72.64820313 76.12765625 72.67140625 75.1953125 72.6953125 C72.8125 72.5 72.8125 72.5 70.8125 70.5 C70.11576611 63.26626288 70.64234832 56.41735848 72.8125 49.5 C65.57543667 51.77801149 65.57543667 51.77801149 60.28515625 56.84765625 C59.55081934 58.58027323 58.82690801 60.31734445 58.11328125 62.05859375 C55.35615172 67.23338642 50.0364716 69.43636141 44.9375 71.875 C38.38479754 73.18554049 32.22386462 73.79463745 26.3125 70.25 C23.54483032 68.35015895 21.73587447 66.24432698 19.8125 63.5 C19.26722656 63.89832031 18.72195313 64.29664063 18.16015625 64.70703125 C7.97159983 71.86514525 -0.66091348 73.66433016 -13.1875 72.5 C-21.88682594 70.64086986 -27.36006916 65.62486503 -32.5703125 58.6484375 C-37.42271192 50.13128886 -36.17563957 37.956973 -34.4921875 28.66015625 C-31.36103081 17.38536095 -24.82914356 9.69141717 -15.23828125 3.17578125 C-10.34390604 0.51883471 -5.49761714 0.09960359 0 0 Z " fill="#C569E0" transform="translate(629.1875,530.5)"/>
<path d="M0 0 C0.68648621 -0.0065712 1.37297241 -0.0131424 2.08026123 -0.01991272 C4.35884715 -0.03966576 6.63736683 -0.05131784 8.91601562 -0.0612793 C9.69604446 -0.06535482 10.4760733 -0.06943035 11.27973938 -0.07362938 C15.41500586 -0.09450696 19.55023907 -0.10879663 23.68554688 -0.11816406 C27.9378278 -0.12918191 32.18957866 -0.16352251 36.44167328 -0.20333576 C39.72587994 -0.22962013 43.00996318 -0.23786671 46.29426575 -0.24144554 C47.86020961 -0.24628764 49.42614885 -0.2578331 50.99198914 -0.27648354 C61.6480822 -0.39543088 70.97217091 -0.00339669 79.25976562 7.48950195 C85.27013373 14.22281528 85.64586408 19.66704804 85.52539062 28.48168945 C85.32226562 31.17700195 85.32226562 31.17700195 84.32226562 32.17700195 C84.18673197 34.85565022 84.11165791 37.51212151 84.07617188 40.19262695 C84.04321903 41.85278819 84.01000764 43.51294431 83.9765625 45.1730957 C83.9292327 47.79756971 83.8848403 50.42202513 83.84545898 53.04663086 C83.80562259 55.57469131 83.75408949 58.10231117 83.70117188 60.63012695 C83.69275772 61.41051331 83.68434357 62.19089966 83.67567444 62.99493408 C83.58290257 67.10429266 83.4277117 70.58730651 81.32226562 74.17700195 C77.83968335 76.52072346 74.68953584 76.43597829 70.56933594 76.45166016 C69.56361038 76.45932655 69.56361038 76.45932655 68.53756714 76.46714783 C66.32508362 76.48102544 64.11291246 76.48008781 61.90039062 76.4777832 C60.35585414 76.48167252 58.81131871 76.48600768 57.26678467 76.49076843 C54.02873266 76.49822771 50.79078968 76.49794252 47.55273438 76.49267578 C43.41920404 76.48689618 39.28612398 76.50377663 35.152668 76.52702045 C31.96117578 76.54181466 28.7697904 76.54262155 25.57826996 76.53951073 C24.05535748 76.54002157 22.53243865 76.54521454 21.00955963 76.55532265 C9.68961056 76.6212117 1.62501977 75.96192799 -6.98632812 68.0246582 C-9.1584439 65.65188508 -10.41667623 63.11947097 -11.67773438 60.17700195 C-12.33773437 59.84700195 -12.99773437 59.51700195 -13.67773438 59.17700195 C-13.80453691 51.72072511 -13.8920873 44.26472641 -13.95239258 36.80761719 C-13.97753277 34.27105315 -14.01164974 31.73456153 -14.05493164 29.19824219 C-14.11560099 25.55165744 -14.14395011 21.90603063 -14.16601562 18.2590332 C-14.19182205 17.12552933 -14.21762848 15.99202545 -14.24421692 14.82417297 C-14.24702661 6.93257229 -14.24702661 6.93257229 -11.2722168 2.984375 C-7.18822217 0.13937526 -4.98955248 0.0394692 0 0 Z " fill="#E1E9FA" transform="translate(180.677734375,528.822998046875)"/>
<path d="M0 0 C3.44687487 0.17526482 4.79856206 0.57403135 7.6875 2.1875 C7.71458567 3.79157328 7.73393483 5.3957785 7.75 7 C7.76160156 7.89332031 7.77320313 8.78664063 7.78515625 9.70703125 C7.6875 12.1875 7.6875 12.1875 6.6875 15.1875 C9.9875 15.1875 13.2875 15.1875 16.6875 15.1875 C16.3575 16.8375 16.0275 18.4875 15.6875 20.1875 C12.3875 20.1875 9.0875 20.1875 5.6875 20.1875 C5.56375 21.775625 5.44 23.36375 5.3125 25 C4.96021488 28.98235351 4.41422541 32.83185964 3.625 36.75 C2.63347889 41.89259082 2.22471795 46.9569866 2.6875 52.1875 C4.54142146 54.04142146 7.11203037 53.42294204 9.58203125 53.515625 C12.43928219 53.07033914 13.69438911 52.28620617 15.6875 50.1875 C16.24242203 47.33437062 16.24242203 47.33437062 16.1875 44.125 C16.71657443 33.77354375 20.01524269 26.24207558 27.6875 19.1875 C32.1477245 15.46363332 36.55059315 14.57238415 42.2421875 14.78125 C46.05573508 15.41481062 48.53209747 16.99243737 51.6875 19.1875 C52.1825 17.7025 52.1825 17.7025 52.6875 16.1875 C55.09295638 14.98477181 56.63746953 15.08678528 59.3125 15.125 C60.53839844 15.13853516 60.53839844 15.13853516 61.7890625 15.15234375 C62.41554688 15.16394531 63.04203125 15.17554688 63.6875 15.1875 C62.8278874 21.00252641 61.95330855 26.80900295 60.88671875 32.58984375 C60.75048096 33.33242432 60.61424316 34.07500488 60.47387695 34.84008789 C60.20558783 36.28948602 59.93222499 37.73795691 59.65307617 39.18530273 C58.84310549 43.57372912 58.47074803 47.72697259 58.6875 52.1875 C59.78104906 53.48274348 59.78104906 53.48274348 62.4375 53.5625 C66.71341744 53.06912491 67.98556261 51.42982486 70.6875 48.1875 C71.1825 47.1975 71.1825 47.1975 71.6875 46.1875 C72.3475 46.1875 73.0075 46.1875 73.6875 46.1875 C73.46133427 51.72856031 72.17573184 54.63773594 68.35546875 58.67578125 C64.2371984 62.40826515 60.12199652 63.8190899 54.6484375 63.609375 C51.00499306 62.8255264 49.23923013 60.86074109 46.6875 58.1875 C45.98329159 56.87360779 45.30741497 55.5432019 44.6875 54.1875 C44.31238281 54.66960938 43.93726563 55.15171875 43.55078125 55.6484375 C39.27813545 60.92198018 36.66822793 62.80288994 29.8125 63.6875 C25.3953015 63.60352284 23.09109917 61.60957602 19.9375 58.6953125 C18.6875 57.1875 18.6875 57.1875 18.6875 55.1875 C18.00042969 55.68121094 17.31335938 56.17492187 16.60546875 56.68359375 C15.70441406 57.32425781 14.80335938 57.96492187 13.875 58.625 C12.98167969 59.26308594 12.08835937 59.90117188 11.16796875 60.55859375 C6.90204698 63.35999434 2.68982578 63.88725824 -2.3125 63.1875 C-6.06462276 61.17247111 -7.94894095 59.73283858 -10.3125 56.1875 C-10.5405458 53.43318061 -10.64353465 50.8166338 -10.625 48.0625 C-10.62306641 46.88034912 -10.62306641 46.88034912 -10.62109375 45.67431641 C-10.48840011 37.33286233 -9.04331494 29.32645122 -7.3125 21.1875 C-9.2925 20.5275 -11.2725 19.8675 -13.3125 19.1875 C-12.9825 17.8675 -12.6525 16.5475 -12.3125 15.1875 C-10.0025 15.1875 -7.6925 15.1875 -5.3125 15.1875 C-5.25191406 14.18847656 -5.19132812 13.18945312 -5.12890625 12.16015625 C-5.04511719 10.86980469 -4.96132813 9.57945312 -4.875 8.25 C-4.79378906 6.96222656 -4.71257812 5.67445313 -4.62890625 4.34765625 C-4.21750539 0.23872672 -4.21750539 0.23872672 0 0 Z " fill="#C569E0" transform="translate(515.3125,539.8125)"/>
<path d="M0 0 C0.33 17.49 0.66 34.98 1 53 C1.66 53 2.32 53 3 53 C3.515625 54.19625 4.03125 55.3925 4.5625 56.625 C7.4198362 62.29942822 11.10953612 66.03587451 17.18232727 68.06147766 C21.0063373 69.00155794 24.2283292 69.24752412 28.15698242 69.24291992 C28.83432938 69.24481827 29.51167633 69.24671661 30.20954895 69.24867249 C32.42497729 69.25234566 34.64007009 69.24172803 36.85546875 69.23046875 C38.40529848 69.22927512 39.95512894 69.22882417 41.50495911 69.2290802 C44.74187799 69.22752145 47.97868533 69.21927655 51.21557617 69.20581055 C55.36160098 69.18877893 59.50750398 69.18499781 63.65355968 69.18575573 C66.84915832 69.18548374 70.04473041 69.17999862 73.24032021 69.17275429 C74.76931877 69.16957661 76.29832032 69.16760232 77.82732201 69.16686058 C79.9620005 69.16468986 82.09655038 69.15593109 84.23120117 69.14526367 C85.44474777 69.14145187 86.65829437 69.13764008 87.90861511 69.13371277 C90.47088963 69.0228858 92.56658085 68.75754878 95 68 C96.10357383 63.50304834 96.20115804 59.05722429 96.28125 54.453125 C96.29965942 53.64131775 96.31806885 52.8295105 96.33703613 51.99310303 C96.41550648 48.53182752 96.48377152 45.07037238 96.55224609 41.60888672 C96.6038065 39.0776967 96.66108115 36.546682 96.71875 34.015625 C96.73232544 33.22714172 96.74590088 32.43865845 96.7598877 31.62628174 C96.88709711 26.11290289 96.88709711 26.11290289 98 25 C98.07319621 22.30345146 98.09242537 19.63308542 98.0625 16.9375 C98.05798828 16.17888672 98.05347656 15.42027344 98.04882812 14.63867188 C98.0370068 12.75908129 98.01907078 10.87953101 98 9 C98.99 9.33 99.98 9.66 101 10 C101.95619733 13.99795892 102.1039592 17.70803922 102.0625 21.8125 C102.05347656 22.97394531 102.04445313 24.13539063 102.03515625 25.33203125 C102.02355469 26.21246094 102.01195312 27.09289062 102 28 C102.66 28 103.32 28 104 28 C104 25.03 104 22.06 104 19 C104.33 19 104.66 19 105 19 C105.029729 20.02154175 105.029729 20.02154175 105.06005859 21.0637207 C105.15526983 24.14703917 105.26496466 27.22967649 105.375 30.3125 C105.4059375 31.38435547 105.436875 32.45621094 105.46875 33.56054688 C105.50742187 34.58857422 105.54609375 35.61660156 105.5859375 36.67578125 C105.6173584 37.62364502 105.6487793 38.57150879 105.68115234 39.5480957 C105.8489051 42.2530269 105.8489051 42.2530269 108 45 C108.433125 46.155 108.86625 47.31 109.3125 48.5 C112.30220494 54.66198727 118.15463388 58.65452728 123.46044922 62.76367188 C125 64 125 64 127.47265625 66.390625 C130.49971762 68.7036345 130.49971762 68.7036345 137 67 C137.33 44.89 137.66 22.78 138 0 C138.99 0.33 139.98 0.66 141 1 C141.6953125 2.78515625 141.6953125 2.78515625 142.125 5.0625 C142.27195312 5.79597656 142.41890625 6.52945313 142.5703125 7.28515625 C143.72239266 14.56420815 144.18279184 21.60010987 144.23828125 28.96484375 C144.246353 29.99758926 144.25442474 31.03033478 144.26274109 32.09437561 C144.27650681 34.26854815 144.28726217 36.44274161 144.29516602 38.61694336 C144.306713 40.82892235 144.3272073 43.0408729 144.35668945 45.25268555 C144.39949009 48.46942845 144.41554828 51.68535103 144.42578125 54.90234375 C144.44328934 55.88073715 144.46079742 56.85913055 144.47883606 57.86717224 C144.45672137 64.931121 143.25628655 71.25995282 138.49263 76.73130798 C135.7301987 79.07929411 132.46635446 78.17047645 129 78 C128.67 76.68 128.34 75.36 128 74 C127.01 74 126.02 74 125 74 C125 73.34 125 72.68 125 72 C124.34 72 123.68 72 123 72 C123 71.34 123 70.68 123 70 C122.38125 69.855625 121.7625 69.71125 121.125 69.5625 C119 69 119 69 117 68 C117 67.34 117 66.68 117 66 C116.443125 65.773125 115.88625 65.54625 115.3125 65.3125 C108.44314805 61.41367863 105.21024981 55.31082628 103 48 C101.62636507 53.06960229 102.31052188 57.90183409 102.94726562 63.02929688 C103.43480013 68.33186287 102.35269542 70.93230322 99 75 C94.68421053 79 94.68421053 79 91 79 C90.071875 79.4640625 90.071875 79.4640625 89.125 79.9375 C86.73497072 81.13251464 84.62862765 81.55120991 82 82 C81.22473465 82.17168198 80.4494693 82.34336395 79.65071106 82.52024841 C77.04046893 82.99267554 74.67526458 83.12051521 72.02612305 83.11352539 C71.06550461 83.11344986 70.10488617 83.11337433 69.11515808 83.11329651 C68.0910231 83.10813522 67.06688812 83.10297394 66.01171875 83.09765625 C64.95338333 83.0962413 63.89504791 83.09482635 62.80464172 83.09336853 C59.43223211 83.08778159 56.05988946 83.07523144 52.6875 83.0625 C50.39778742 83.05748331 48.10807379 83.0529207 45.81835938 83.04882812 C40.21221683 83.03781643 34.6061132 83.02109126 29 83 C29 82.34 29 81.68 29 81 C28.01 81.33 27.02 81.66 26 82 C23.63477442 81.07796291 21.29598193 80.08301035 19 79 C19 78.34 19 77.68 19 77 C17.989375 77.165 16.97875 77.33 15.9375 77.5 C11.42442244 76.92691079 10.98090507 76.3333069 8.1875 73 C7.62417969 72.2575 7.06085938 71.515 6.48046875 70.75 C5.99191406 70.1725 5.50335938 69.595 5 69 C4.34 69 3.68 69 3 69 C2.67 68.34 2.34 67.68 2 67 C1.01 67.495 1.01 67.495 0 68 C0 65.69 0 63.38 0 61 C-1.32 61 -2.64 61 -4 61 C-5.94927535 54.52876778 -6.21245277 48.80784525 -6.01171875 42.078125 C-5.98906448 41.05571716 -5.96641022 40.03330933 -5.94306946 38.97991943 C-5.89335838 36.83170311 -5.83843614 34.68360168 -5.77856445 32.53564453 C-5.6874057 29.24659757 -5.61286812 25.95748868 -5.54101562 22.66796875 C-5.49055207 20.57549725 -5.43915242 18.48304806 -5.38671875 16.390625 C-5.36373215 15.40829895 -5.34074554 14.4259729 -5.31706238 13.41387939 C-5.27746147 12.04160187 -5.27746147 12.04160187 -5.23706055 10.64160156 C-5.21548386 9.8396637 -5.19390717 9.03772583 -5.17167664 8.21148682 C-4.99841998 5.97964665 -4.77153511 4.10453987 -4 2 C-1 0 -1 0 0 0 Z " fill="#2C56A7" transform="translate(167,535)"/>
<path d="M0 0 C2.5625 1.0625 2.5625 1.0625 4.5625 3.0625 C4.80300903 5.96047974 4.80300903 5.96047974 4.78955078 9.71533203 C4.78984283 10.39837402 4.79013489 11.08141602 4.79043579 11.78515625 C4.78904039 14.04700341 4.77346967 16.30852276 4.7578125 18.5703125 C4.75408311 20.13686951 4.75123579 21.70342884 4.74923706 23.26998901 C4.74159476 27.39644797 4.72194124 31.52276651 4.6998291 35.64916992 C4.67938346 39.85854187 4.6702381 44.06793648 4.66015625 48.27734375 C4.63869583 56.539127 4.60455279 64.80079604 4.5625 73.0625 C-2.79185463 74.35998995 -2.79185463 74.35998995 -5.64331055 73.04614258 C-6.19801025 72.52173584 -6.75270996 71.9973291 -7.32421875 71.45703125 C-7.95263672 70.88533203 -8.58105469 70.31363281 -9.22851562 69.72460938 C-9.85435547 69.11423828 -10.48019531 68.50386719 -11.125 67.875 C-12.39926707 66.6935006 -13.67399675 65.51249991 -14.94921875 64.33203125 C-15.54565186 63.76339355 -16.14208496 63.19475586 -16.7565918 62.60888672 C-18.56663568 60.89421683 -18.56663568 60.89421683 -21.25 58.93359375 C-23.67341353 56.86070968 -24.58237642 55.2531816 -25.75 52.3125 C-26.23919922 51.11367188 -26.23919922 51.11367188 -26.73828125 49.890625 C-26.96902344 49.28734375 -27.19976562 48.6840625 -27.4375 48.0625 C-27.7675 48.0625 -28.0975 48.0625 -28.4375 48.0625 C-28.52482726 44.16680865 -28.57800185 40.27137018 -28.625 36.375 C-28.65013672 35.27220703 -28.67527344 34.16941406 -28.70117188 33.03320312 C-28.71083984 31.96650391 -28.72050781 30.89980469 -28.73046875 29.80078125 C-28.7461792 28.82149658 -28.76188965 27.84221191 -28.77807617 26.83325195 C-28.22235815 22.31221692 -25.91634954 19.21719615 -22.6171875 16.1953125 C-22.08617432 15.70506592 -21.55516113 15.21481934 -21.00805664 14.7097168 C-20.44852295 14.20738525 -19.88898926 13.70505371 -19.3125 13.1875 C-18.7342749 12.66518799 -18.1560498 12.14287598 -17.56030273 11.60473633 C-15.86084602 10.08119118 -14.15041788 8.57087503 -12.4375 7.0625 C-11.56480469 6.28003906 -10.69210937 5.49757813 -9.79296875 4.69140625 C-4.34532488 0.07900591 -4.34532488 0.07900591 0 0 Z " fill="#DEE5F9" transform="translate(300.4375,529.9375)"/>
<path d="M0 0 C6.36406985 -0.36023037 6.36406985 -0.36023037 8.91015625 1.08203125 C12.90205922 8.10720815 9.85130178 20.45103157 7.91137695 27.72192383 C3.18586119 44.20049229 -2.0606219 61.77509509 -16.8125 71.9375 C-22.43773397 73.81257799 -27.7022041 73.78038351 -33.3125 71.875 C-38.0999534 68.53491624 -41.27201148 64.56457976 -43 59 C-43.28019039 56.01228563 -43.42825987 53.17754933 -43.4375 50.1875 C-43.44330078 48.86552612 -43.44330078 48.86552612 -43.44921875 47.5168457 C-43.22301642 33.56181111 -40.41641548 19.7105872 -38 6 C-39.2684375 6.29519531 -40.536875 6.59039063 -41.84375 6.89453125 C-42.55724609 7.06057861 -43.27074219 7.22662598 -44.00585938 7.39770508 C-46.97842601 8.29551628 -48.31430897 9.40122633 -50 12 C-50.33417929 15.6675213 -50.33417929 15.6675213 -50 19 C-48.68 19.66 -47.36 20.32 -46 21 C-46.25 22.875 -46.25 22.875 -47 25 C-50.16857001 27.3470889 -53.15724779 27.47054109 -57 27 C-59.69990662 25.20006226 -61.5418865 23.916227 -63 21 C-63.55973414 16.41201528 -63.42464043 12.90023771 -61.4375 8.6875 C-57.15597927 3.96684894 -52.07066506 1.25161497 -45.64990234 0.85473633 C-42.89147833 0.83030923 -40.13354016 0.81435386 -37.375 0.8125 C-35.92480469 0.79413086 -35.92480469 0.79413086 -34.4453125 0.77539062 C-33.06085938 0.77249023 -33.06085938 0.77249023 -31.6484375 0.76953125 C-30.80458496 0.76542236 -29.96073242 0.76131348 -29.09130859 0.75708008 C-27 1 -27 1 -25 3 C-23.79581954 11.02025713 -25.99257505 19.29108978 -27.5 27.125 C-31.55861982 44.32485222 -31.55861982 44.32485222 -28.23828125 60.8671875 C-25.78474758 63.20510963 -24.94716436 63.68328359 -21.625 63.625 C-17.90425396 63.36314717 -15.17140467 62.63743205 -12.40625 59.94140625 C-2.36575545 46.07994572 0.3782115 28.43680863 0.125 11.8125 C0.11597656 10.66974609 0.10695313 9.52699219 0.09765625 8.34960938 C0.07436393 5.5661769 0.04165999 2.78320771 0 0 Z " fill="#C669E1" transform="translate(423,530)"/>
<path d="M0 0 C1.4370809 -0.05422947 2.87475462 -0.09289723 4.3125 -0.125 C5.11300781 -0.14820313 5.91351563 -0.17140625 6.73828125 -0.1953125 C9 0 9 0 12 2 C12.44149834 7.65976342 11.62846433 12.78347033 10.5 18.3125 C9.22747519 24.94141569 8.60525823 31.23090964 9 38 C13.14093698 38.20970559 13.14093698 38.20970559 17 37 C18.03013277 35.35178756 19.03114628 33.68496298 20 32 C21 31 21 31 24.5 30.875 C28 31 28 31 29 32 C29.52928076 34.31282351 29.96333715 36.63721913 30.40234375 38.96875 C30.69818359 39.97421875 30.69818359 39.97421875 31 41 C33.98997825 42.49498913 36.70042775 42.11577446 40 42 C40.99 41.67 41.98 41.34 43 41 C43.33 39.02 43.66 37.04 44 35 C39.57563656 31.28451247 34.87660161 28.57592019 29.83984375 25.78125 C25.94299579 23.33700974 23.4703201 21.41096031 22 17 C21.42935402 13.36213189 21.36513218 10.99075147 23.38671875 7.8359375 C27.70783517 2.68059253 30.86609174 0.31372106 37.70703125 -0.37109375 C44.68771579 -0.576408 50.78495975 -0.74127445 56.6171875 3.61328125 C58.99537556 5.99818736 59.96302034 7.64499527 60.3125 11 C60 14 60 14 58.875 15.875 C56.21965017 17.4682099 54.03210482 17.20214032 51 17 C50.80664062 16.37351562 50.61328125 15.74703125 50.4140625 15.1015625 C50.02347656 13.87566406 50.02347656 13.87566406 49.625 12.625 C49.36976563 11.81289063 49.11453125 11.00078125 48.8515625 10.1640625 C48.10145717 7.83540815 48.10145717 7.83540815 46 6 C43.33050591 5.75684344 43.33050591 5.75684344 40.375 5.875 C39.37210937 5.89304687 38.36921875 5.91109375 37.3359375 5.9296875 C36.17964844 5.96449219 36.17964844 5.96449219 35 6 C34.4223638 10.06080127 34.4223638 10.06080127 35 14 C37.39588281 16.37675858 40.23731258 17.71544704 43.25 19.1875 C53.17064078 24.27943752 53.17064078 24.27943752 56 29 C57.04455161 33.41630275 56.34522623 37.16831864 54.625 41.3125 C49.18582062 46.88118365 42.8782177 48.23698685 35.25 48.4375 C30.44364911 48.28500708 27.0781434 47.71876227 23 45 C21.12886302 43.67894885 21.12886302 43.67894885 19 43 C17.0859389 43.86301345 17.0859389 43.86301345 15.3125 45.375 C11.46854894 47.99261592 8.67780818 48.70931223 4.046875 48.421875 C0.82489323 47.75780242 -0.83446915 46.42801944 -3 44 C-7.50622944 36.70419995 -4.72008146 26.22126794 -3.0625 18.375 C-1.80772521 12.25631019 -0.68766415 6.21069309 0 0 Z " fill="#C569DF" transform="translate(439,555)"/>
<path d="M0 0 C0.99 1.0828125 0.99 1.0828125 2 2.1875 C8.1806648 8.38582384 14.41319586 11.10285007 23.11425781 11.20874023 C23.83496964 11.21852402 24.55568146 11.2283078 25.29823303 11.23838806 C27.68317835 11.26829909 30.06806773 11.28971635 32.453125 11.30859375 C33.67705585 11.31845149 33.67705585 11.31845149 34.92571259 11.32850838 C39.24554206 11.36108448 43.56534706 11.3855386 47.88525391 11.4050293 C51.45495597 11.42283431 55.02386686 11.45764275 58.59326172 11.50756836 C62.90862653 11.56785251 67.22325853 11.59851586 71.53902435 11.60820198 C73.18006673 11.61674431 74.82109017 11.63553255 76.46189117 11.6649456 C86.58637788 12.21721513 86.58637788 12.21721513 95.37402344 8.02368164 C96.06646149 7.21417809 96.06646149 7.21417809 96.77288818 6.38832092 C98 5 98 5 101 4 C101.5699776 8.8448096 99.96022426 11.23971513 97 15 C92.68421053 19 92.68421053 19 89 19 C88.38125 19.309375 87.7625 19.61875 87.125 19.9375 C84.73497072 21.13251464 82.62862765 21.55120991 80 22 C79.22473465 22.17168198 78.4494693 22.34336395 77.65071106 22.52024841 C75.04046893 22.99267554 72.67526458 23.12051521 70.02612305 23.11352539 C69.06550461 23.11344986 68.10488617 23.11337433 67.11515808 23.11329651 C66.0910231 23.10813522 65.06688812 23.10297394 64.01171875 23.09765625 C62.95338333 23.0962413 61.89504791 23.09482635 60.80464172 23.09336853 C57.43223211 23.08778159 54.05988946 23.07523144 50.6875 23.0625 C48.39778742 23.05748331 46.10807379 23.0529207 43.81835938 23.04882812 C38.21221683 23.03781643 32.6061132 23.02109126 27 23 C27 22.34 27 21.68 27 21 C26.01 21.33 25.02 21.66 24 22 C21.63477442 21.07796291 19.29598193 20.08301035 17 19 C17 18.34 17 17.68 17 17 C15.4840625 17.2475 15.4840625 17.2475 13.9375 17.5 C9.42442244 16.92691079 8.98090507 16.3333069 6.1875 13 C5.62417969 12.2575 5.06085938 11.515 4.48046875 10.75 C3.99191406 10.1725 3.50335938 9.595 3 9 C2.34 9 1.68 9 1 9 C-0.4783226 6.04335481 -0.06032783 3.25770263 0 0 Z " fill="#2254AB" transform="translate(169,595)"/>
<path d="M0 0 C0.33 17.49 0.66 34.98 1 53 C1.66 53 2.32 53 3 53 C3.515625 54.19625 4.03125 55.3925 4.5625 56.625 C7.4198362 62.29942822 11.10953612 66.03587451 17.18232727 68.06147766 C21.0063373 69.00155794 24.2283292 69.24752412 28.15698242 69.24291992 C28.83432938 69.24481827 29.51167633 69.24671661 30.20954895 69.24867249 C32.42497729 69.25234566 34.64007009 69.24172803 36.85546875 69.23046875 C38.40529848 69.22927512 39.95512894 69.22882417 41.50495911 69.2290802 C44.74187799 69.22752145 47.97868533 69.21927655 51.21557617 69.20581055 C55.36160098 69.18877893 59.50750398 69.18499781 63.65355968 69.18575573 C66.84915832 69.18548374 70.04473041 69.17999862 73.24032021 69.17275429 C74.76931877 69.16957661 76.29832032 69.16760232 77.82732201 69.16686058 C79.9620005 69.16468986 82.09655038 69.15593109 84.23120117 69.14526367 C85.44474777 69.14145187 86.65829437 69.13764008 87.90861511 69.13371277 C90.47088963 69.0228858 92.56658085 68.75754878 95 68 C96.10190125 63.49436109 96.21801233 59.03092105 96.31640625 54.41796875 C96.3475779 53.19670036 96.3475779 53.19670036 96.37937927 51.95075989 C96.44449463 49.36308821 96.50358208 46.77531947 96.5625 44.1875 C96.60572142 42.42772455 96.64933685 40.66795872 96.69335938 38.90820312 C96.8001368 34.60556691 96.90151018 30.30283357 97 26 C97.99 25.505 97.99 25.505 99 25 C99.09902133 30.74742629 99.17154082 36.49435392 99.21972656 42.24243164 C99.23981774 44.19694673 99.26709589 46.1514019 99.30175781 48.10571289 C99.35038601 50.91828208 99.3729936 53.73005527 99.390625 56.54296875 C99.41127014 57.41398727 99.43191528 58.2850058 99.45318604 59.18241882 C99.45471126 63.32445784 99.35028384 65.44148187 97.10058594 69.02856445 C93.45933859 72.44593688 90.97134537 72.14407121 86.046875 72.19287109 C84.97325462 72.20513733 84.97325462 72.20513733 83.87794495 72.21765137 C81.50197176 72.24252003 79.12605874 72.25903193 76.75 72.2734375 C75.93687347 72.27876118 75.12374695 72.28408485 74.28598022 72.28956985 C69.97565656 72.31631766 65.66536192 72.3356806 61.35498047 72.35009766 C57.79905233 72.363396 54.24370363 72.39116916 50.68798828 72.43212891 C46.38675767 72.48167449 42.08604965 72.50624646 37.7845459 72.51332474 C36.15159403 72.52000489 34.51865233 72.5351419 32.88586426 72.55921555 C23.03250533 72.69611182 13.81965397 72.65909812 6.29760742 65.34457397 C4.875 63.6875 4.875 63.6875 3 61 C2.34 63.31 1.68 65.62 1 68 C0.67 68 0.34 68 0 68 C0 65.69 0 63.38 0 61 C-1.32 61 -2.64 61 -4 61 C-5.94927535 54.52876778 -6.21245277 48.80784525 -6.01171875 42.078125 C-5.98906448 41.05571716 -5.96641022 40.03330933 -5.94306946 38.97991943 C-5.89335838 36.83170311 -5.83843614 34.68360168 -5.77856445 32.53564453 C-5.6874057 29.24659757 -5.61286812 25.95748868 -5.54101562 22.66796875 C-5.49055207 20.57549725 -5.43915242 18.48304806 -5.38671875 16.390625 C-5.36373215 15.40829895 -5.34074554 14.4259729 -5.31706238 13.41387939 C-5.27746147 12.04160187 -5.27746147 12.04160187 -5.23706055 10.64160156 C-5.21548386 9.8396637 -5.19390717 9.03772583 -5.17167664 8.21148682 C-4.99841998 5.97964665 -4.77153511 4.10453987 -4 2 C-1 0 -1 0 0 0 Z " fill="#7D90CE" transform="translate(167,535)"/>
<path d="M0 0 C3.375 0.5625 3.375 0.5625 5.3125 1.8125 C6.375 3.5625 6.375 3.5625 6.375 7.5625 C5.694375 8.160625 5.01375 8.75875 4.3125 9.375 C1.97060008 11.51273724 1.97060008 11.51273724 2.5 15.0625 C3.14973735 18.40632106 3.14973735 18.40632106 4.52734375 20.44140625 C6.03818848 24.22199929 4.0850477 27.31817499 2.64453125 30.921875 C1.02079116 34.2992544 -0.52872773 36.42459772 -3.625 38.5625 C-6.75 39.125 -6.75 39.125 -9.625 38.5625 C-12.31872731 36.06618533 -12.62859823 34.53160706 -13.05859375 30.83984375 C-13.08212505 29.39341998 -13.08234959 27.94647898 -13.0625 26.5 C-13.05565186 25.74356201 -13.04880371 24.98712402 -13.04174805 24.20776367 C-12.8166963 16.28880788 -10.88945854 9.42217248 -6.3125 2.875 C-3.625 0.5625 -3.625 0.5625 0 0 Z " fill="#1E1F2F" transform="translate(673.625,559.4375)"/>
<path d="M0 0 C2 2 2 2 2.4375 5.25 C2.21291935 14.68238741 -2.35418843 25.35418843 -9 32 C-11.9375 32.375 -11.9375 32.375 -15 32 C-17.70798539 29.19054443 -18.41232191 27.17531733 -18.375 23.3125 C-18.12248042 15.51882765 -15.73110794 9.20957917 -11 3 C-10.5875 2.38125 -10.175 1.7625 -9.75 1.125 C-6.64468021 -0.871277 -3.61207433 -0.28667257 0 0 Z " fill="#1E1F30" transform="translate(562,562)"/>
<path d="M0 0 C0.99 0.33 1.98 0.66 3 1 C3.6953125 2.78515625 3.6953125 2.78515625 4.125 5.0625 C4.34542969 6.16271484 4.34542969 6.16271484 4.5703125 7.28515625 C5.72239266 14.56420815 6.18279184 21.60010987 6.23828125 28.96484375 C6.246353 29.99758926 6.25442474 31.03033478 6.26274109 32.09437561 C6.27650681 34.26854815 6.28726217 36.44274161 6.29516602 38.61694336 C6.306713 40.82892235 6.3272073 43.0408729 6.35668945 45.25268555 C6.39949009 48.46942845 6.41554828 51.68535103 6.42578125 54.90234375 C6.44328934 55.88073715 6.46079742 56.85913055 6.47883606 57.86717224 C6.45672137 64.931121 5.25628655 71.25995282 0.49263 76.73130798 C-2.2698013 79.07929411 -5.53364554 78.17047645 -9 78 C-9.33 76.68 -9.66 75.36 -10 74 C-10.99 74 -11.98 74 -13 74 C-13 73.34 -13 72.68 -13 72 C-13.66 72 -14.32 72 -15 72 C-14.505 71.01 -14.505 71.01 -14 70 C-13.34 70.495 -12.68 70.99 -12 71.5 C-8.03366759 73.48316621 -5.39696738 73.22357461 -1 73 C-1 72.34 -1 71.68 -1 71 C-0.34 71 0.32 71 1 71 C0.83734146 70.3116658 0.67468292 69.6233316 0.50709534 68.91413879 C-0.0563277 65.67630004 -0.11981014 62.66070345 -0.11352539 59.3737793 C-0.11367142 58.72931351 -0.11381744 58.08484772 -0.1139679 57.42085266 C-0.11327506 55.30527296 -0.10551231 53.18978294 -0.09765625 51.07421875 C-0.09578983 49.60162911 -0.09436699 48.12903885 -0.09336853 46.65644836 C-0.08956096 42.79147612 -0.07974579 38.9265418 -0.06866455 35.06158447 C-0.0584125 31.11332716 -0.05386279 27.16506368 -0.04882812 23.21679688 C-0.03812187 15.47784735 -0.02106669 7.738929 0 0 Z " fill="#376CC5" transform="translate(305,535)"/>
<path d="M0 0 C0.01030746 0.66905869 0.02061493 1.33811737 0.03123474 2.02745056 C0.13979886 9.01977328 0.2543531 16.01198003 0.37231445 23.00415039 C0.41550404 25.61024539 0.45718969 28.21636578 0.49731445 30.82250977 C0.55540579 34.57836544 0.61898657 38.33409518 0.68359375 42.08984375 C0.70030624 43.24645004 0.71701874 44.40305634 0.73423767 45.5947113 C0.82259168 50.46957307 0.97552193 55.22448204 1.64477539 60.05688477 C1.99753383 63.97262462 1.85682669 64.81467093 0 68 C0 65.69 0 63.38 0 61 C-1.32 61 -2.64 61 -4 61 C-5.94927535 54.52876778 -6.21245277 48.80784525 -6.01171875 42.078125 C-5.98906448 41.05571716 -5.96641022 40.03330933 -5.94306946 38.97991943 C-5.89335838 36.83170311 -5.83843614 34.68360168 -5.77856445 32.53564453 C-5.6874057 29.24659757 -5.61286812 25.95748868 -5.54101562 22.66796875 C-5.49055207 20.57549725 -5.43915242 18.48304806 -5.38671875 16.390625 C-5.36373215 15.40829895 -5.34074554 14.4259729 -5.31706238 13.41387939 C-5.27746147 12.04160187 -5.27746147 12.04160187 -5.23706055 10.64160156 C-5.21548386 9.8396637 -5.19390717 9.03772583 -5.17167664 8.21148682 C-4.99841998 5.97964665 -4.77153511 4.10453987 -4 2 C-1 0 -1 0 0 0 Z " fill="#6283C2" transform="translate(167,535)"/>
<path d="M0 0 C0.97191284 0.2131636 1.94382568 0.42632721 2.94519043 0.64595032 C12.62849663 2.67361682 21.86693553 3.41000491 31.78125 3.29296875 C33.21569365 3.28735055 34.65014318 3.28309103 36.08459473 3.28010559 C39.79995558 3.26883122 43.51494586 3.23952214 47.23016357 3.20599365 C51.04531851 3.17490941 54.86053529 3.16151967 58.67578125 3.14648438 C66.11735365 3.11462905 73.55862427 3.06365373 81 3 C79.7109375 4.95703125 79.7109375 4.95703125 78 7 C74.625 7.6875 74.625 7.6875 71 8 C69.80423088 8.25365578 69.80423088 8.25365578 68.58430481 8.51243591 C65.99522487 9.00090089 63.65763218 9.12046869 61.02612305 9.11352539 C60.06550461 9.11344986 59.10488617 9.11337433 58.11515808 9.11329651 C57.0910231 9.10813522 56.06688812 9.10297394 55.01171875 9.09765625 C53.95338333 9.0962413 52.89504791 9.09482635 51.80464172 9.09336853 C48.43223211 9.08778159 45.05988946 9.07523144 41.6875 9.0625 C39.39778742 9.05748331 37.10807379 9.0529207 34.81835938 9.04882812 C29.21221683 9.03781643 23.6061132 9.02109126 18 9 C18 8.34 18 7.68 18 7 C17.01 7.33 16.02 7.66 15 8 C12.63477442 7.07796291 10.29598193 6.08301035 8 5 C8 4.34 8 3.68 8 3 C5.69 3 3.38 3 1 3 C0.67 2.01 0.34 1.02 0 0 Z " fill="#2865C5" transform="translate(178,609)"/>
<path d="M0 0 C0.99 1.0828125 0.99 1.0828125 2 2.1875 C8.18963664 8.39482132 14.41423563 11.11138515 23.13012695 11.17700195 C24.21360413 11.18685875 24.21360413 11.18685875 25.31896973 11.19691467 C27.70874133 11.21662073 30.09845017 11.22830404 32.48828125 11.23828125 C33.71408433 11.24439454 33.71408433 11.24439454 34.96465111 11.25063133 C39.28982667 11.27148031 43.61497062 11.28578724 47.94018555 11.29516602 C52.40244573 11.30622981 56.86420717 11.34063237 61.32629108 11.38033772 C64.76217055 11.4065084 68.19793122 11.41485822 71.6339016 11.41844749 C73.27850908 11.42331208 74.92311131 11.4349225 76.56762123 11.45348549 C78.8727106 11.47788831 81.1765099 11.47691056 83.48168945 11.4699707 C85.44668144 11.47877007 85.44668144 11.47877007 87.45137024 11.48774719 C91.7689771 10.89430669 93.6087798 9.64132436 97 7 C96.1875 8.9375 96.1875 8.9375 95 11 C94.01 11.33 93.02 11.66 92 12 C92 12.66 92 13.32 92 14 C77.3797923 14.97452942 62.78584977 15.2172079 48.13525391 15.24023438 C44.34646718 15.2500741 40.55819462 15.28127341 36.76953125 15.3125 C34.33333649 15.31902036 31.89713794 15.32427461 29.4609375 15.328125 C28.34206146 15.3404718 27.22318542 15.3528186 26.07040405 15.36553955 C17.23578743 15.34050683 10.48092906 13.76059122 3 9 C2.34 9 1.68 9 1 9 C-0.4783226 6.04335481 -0.06032783 3.25770263 0 0 Z " fill="#153175" transform="translate(169,595)"/>
<path d="M0 0 C0.33 0.33 0.66 0.66 1 1 C0.81261215 5.7783901 -0.05135041 9.05598593 -3.33203125 12.64453125 C-6.75840735 15.42896335 -11.51210109 18 -16 18 C-15.5934911 12.10562091 -14.77909536 8.75086274 -11 4 C-10.401875 3.21625 -9.80375 2.4325 -9.1875 1.625 C-6.09059853 -0.67555538 -3.75324077 -0.35407932 0 0 Z " fill="#252237" transform="translate(838,560)"/>
<path d="M0 0 C0.82951172 1.08667969 0.82951172 1.08667969 1.67578125 2.1953125 C5.63709519 6.97551991 10.33714127 10.91999861 15 15 C15.804375 15.72703125 16.60875 16.4540625 17.4375 17.203125 C21.0971611 20.32908552 23.62458503 22.41151097 28.5625 22.4375 C29.696875 22.293125 30.83125 22.14875 32 22 C32.33 20.68 32.66 19.36 33 18 C33.66 18.33 34.32 18.66 35 19 C34.67 20.32 34.34 21.64 34 23 C33.34 23 32.68 23 32 23 C32 23.66 32 24.32 32 25 C29.17998673 26.41000664 27.12992745 26.24548451 24 26 C21.5625 24.6875 21.5625 24.6875 19 23 C16.69221218 21.92818223 14.35382497 20.96922205 12 20 C12 19.34 12 18.68 12 18 C11.443125 17.773125 10.88625 17.54625 10.3125 17.3125 C5.70391007 14.69681382 2.22128307 10.79329504 0 6 C-0.1875 2.6875 -0.1875 2.6875 0 0 Z " fill="#1E3D83" transform="translate(272,583)"/>
<path d="M0 0 C0.99 0 1.98 0 3 0 C3.515625 1.19625 4.03125 2.3925 4.5625 3.625 C7.42049667 9.30073987 11.11027456 13.04268834 17.18983459 15.05673218 C20.95483098 15.98881768 24.16779333 16.2756178 28.03686523 16.31884766 C28.70113022 16.32889328 29.3653952 16.3389389 30.04978943 16.34928894 C32.21938301 16.37988569 34.38885459 16.39708957 36.55859375 16.4140625 C38.0731764 16.43279316 39.58774882 16.45236796 41.10231018 16.4727478 C45.06910142 16.52387481 49.03592641 16.56360388 53.00286865 16.60089111 C57.05863666 16.64105327 61.11426658 16.69208963 65.16992188 16.7421875 C73.1131866 16.8387164 81.05652019 16.92319411 89 17 C89 17.33 89 17.66 89 18 C79.91600461 18.24751327 70.8318829 18.46657754 61.74637032 18.65021229 C57.52672453 18.73637452 53.30775369 18.83200491 49.08886719 18.94995117 C45.0107455 19.06360243 40.9327791 19.15149681 36.85369492 19.22220421 C35.30432178 19.25346206 33.75510081 19.29370693 32.20621109 19.34345436 C22.26493747 19.65547654 13.83496796 19.28802353 6.07473755 12.25520325 C2.48403646 8.53802982 1.02417881 5.01847618 0 0 Z " fill="#657BC9" transform="translate(167,588)"/>
<path d="M0 0 C0.99 0.33 1.98 0.66 3 1 C4.12181718 3.88017106 4.49288671 6.95732025 5 10 C5.309375 11.7634375 5.309375 11.7634375 5.625 13.5625 C6.10186614 17.81961413 6.14111141 22.09541611 6.1875 26.375 C6.20707764 27.44729858 6.20707764 27.44729858 6.22705078 28.54125977 C6.23009509 30.36241061 6.12265911 32.182982 6 34 C5.34 34.66 4.68 35.32 4 36 C3.34 30.06 2.68 24.12 2 18 C1.67 33.84 1.34 49.68 1 66 C0.67 66 0.34 66 0 66 C0 44.22 0 22.44 0 0 Z " fill="#5D7FC1" transform="translate(305,535)"/>
<path d="M0 0 C0.33 0 0.66 0 1 0 C1.00808685 0.54599854 1.01617371 1.09199707 1.02450562 1.65454102 C1.11092905 7.3654611 1.21044654 13.07604907 1.31738281 18.78662109 C1.35553643 20.9144938 1.39041246 23.042428 1.421875 25.17041016 C1.46782232 28.23882955 1.52576688 31.30683047 1.5859375 34.375 C1.59748871 35.31802979 1.60903992 36.26105957 1.62094116 37.23266602 C1.74415739 42.81580396 2.51427539 47.62096089 4 53 C3.9765625 55.96875 3.9765625 55.96875 3.625 58.5 C3.51414063 59.3559375 3.40328125 60.211875 3.2890625 61.09375 C3.19367188 61.7228125 3.09828125 62.351875 3 63 C2.67 63 2.34 63 2 63 C2 60.69 2 58.38 2 56 C1.34 56 0.68 56 0 56 C-1.20864056 53.58271889 -1.12687023 52.05420761 -1.12939453 49.35424805 C-1.13254669 48.38952072 -1.13569885 47.4247934 -1.13894653 46.43083191 C-1.1369223 45.38502457 -1.13489807 44.33921722 -1.1328125 43.26171875 C-1.13376923 42.18880081 -1.13472595 41.11588287 -1.13571167 40.01045227 C-1.13639321 37.73654115 -1.13454075 35.4626281 -1.13037109 33.1887207 C-1.12503813 29.71235759 -1.1303089 26.23612461 -1.13671875 22.75976562 C-1.13605766 20.55208305 -1.13477585 18.34440055 -1.1328125 16.13671875 C-1.13483673 15.0969841 -1.13686096 14.05724945 -1.13894653 12.98600769 C-1.13579437 12.01182388 -1.13264221 11.03764008 -1.12939453 10.03393555 C-1.12859894 9.18059128 -1.12780334 8.32724701 -1.12698364 7.44804382 C-0.99392435 4.88287111 -0.56341632 2.50304142 0 0 Z " fill="#3763B4" transform="translate(165,540)"/>
<path d="M0 0 C2.4375 0.4375 2.4375 0.4375 4.25 1.5625 C6.01594751 4.35083817 5.89931576 6.20478968 5.4375 9.4375 C3.875 11.875 3.875 11.875 1.4375 13.4375 C-2.25 13.3125 -2.25 13.3125 -5.5625 12.4375 C-6.98291821 9.59666359 -6.87702272 7.58272722 -6.5625 4.4375 C-4.55049381 1.60578758 -3.44178233 0.58762137 0 0 Z " fill="#C368DE" transform="translate(448.5625,532.5625)"/>
<path d="M0 0 C0.99 0.33 1.98 0.66 3 1 C3.95619733 4.99795892 4.1039592 8.70803922 4.0625 12.8125 C4.05347656 13.97394531 4.04445313 15.13539063 4.03515625 16.33203125 C4.02355469 17.21246094 4.01195312 18.09289062 4 19 C4.66 19 5.32 19 6 19 C6.25 26.625 6.25 26.625 4 30 C3.67 29.01 3.34 28.02 3 27 C2.67 35.91 2.34 44.82 2 54 C1.67 54 1.34 54 1 54 C0.67 36.18 0.34 18.36 0 0 Z " fill="#4461A3" transform="translate(265,544)"/>
<path d="M0 0 C2 3 2 3 3.3125 6.5 C6.30629934 12.67042612 12.15707348 16.62841305 17.44799805 20.76660156 C18.8924389 21.91451963 20.28485901 23.12706931 21.671875 24.34375 C24.04370336 26.40029152 24.04370336 26.40029152 27.8125 25.75 C28.864375 25.5025 29.91625 25.255 31 25 C31 25.99 31 26.98 31 28 C28.1486935 29.42565325 26.16475109 29.30140487 23 29 C20.39453125 27.3828125 20.39453125 27.3828125 17.8125 25.125 C16.87148438 24.30773437 15.93046875 23.49046875 14.9609375 22.6484375 C13.98382813 21.77445313 13.00671875 20.90046875 12 20 C10.97259587 19.11574274 9.94394942 18.23292683 8.9140625 17.3515625 C0.37178408 9.88547664 0.37178408 9.88547664 -1 5 C-0.625 2.1875 -0.625 2.1875 0 0 Z " fill="#6B80CA" transform="translate(273,577)"/>
<path d="M0 0 C0.33 0 0.66 0 1 0 C1.33 17.16 1.66 34.32 2 52 C1.01 52 0.02 52 -1 52 C-1.02526739 44.75513449 -1.0428318 37.51028026 -1.05493164 30.26538086 C-1.05997356 27.79857967 -1.06680691 25.33178148 -1.07543945 22.86499023 C-1.08751125 19.32795471 -1.09322956 15.79095855 -1.09765625 12.25390625 C-1.10281754 11.14350479 -1.10797882 10.03310333 -1.11329651 8.88905334 C-1.11337204 7.86807053 -1.11344757 6.84708771 -1.11352539 5.79516602 C-1.115746 4.89137711 -1.11796661 3.9875882 -1.12025452 3.05641174 C-1 1 -1 1 0 0 Z " fill="#BCC6E8" transform="translate(168,536)"/>
<path d="M0 0 C0.99 0 1.98 0 3 0 C3.515625 1.19625 4.03125 2.3925 4.5625 3.625 C7.13488238 8.73353402 10.62282192 12.63335984 16.0078125 14.8125 C18.1093883 15.45379814 18.1093883 15.45379814 21 16 C20.67 16.66 20.34 17.32 20 18 C13.51478477 17.7297827 9.713104 15.40572765 5 11 C2.1363981 7.4021412 0.53899083 4.58142209 0 0 Z " fill="#7589CD" transform="translate(167,588)"/>
<path d="M0 0 C0.33 0 0.66 0 1 0 C1 13.86 1 27.72 1 42 C0.67 42 0.34 42 0 42 C-2.20427828 35.0324537 -2.08834707 28.81653895 -1.6875 21.5625 C-1.63916016 20.48162109 -1.59082031 19.40074219 -1.54101562 18.28710938 C-1.24725263 12.15527174 -0.74956375 6.0926079 0 0 Z " fill="#4179D3" transform="translate(163,554)"/>
<path d="M0 0 C2.72878352 1.55930487 5.01988891 3.01881383 7.3125 5.1875 C11.08098611 7.72903714 13.52088758 7.30366864 18 7 C18.33 5.68 18.66 4.36 19 3 C19.66 3.33 20.32 3.66 21 4 C20.67 5.32 20.34 6.64 20 8 C19.34 8 18.68 8 18 8 C18 8.66 18 9.32 18 10 C15.02536663 11.48731668 13.32721157 11.4313052 10 11 C5.88030934 8.71808956 2.6937809 6.32974672 0.5 2.125 C0.335 1.42375 0.17 0.7225 0 0 Z " fill="#1F4188" transform="translate(286,598)"/>
<path d="M0 0 C0.99 0.495 0.99 0.495 2 1 C2.90794026 4.31335518 3.11973427 7.44118745 3.09765625 10.86328125 C3.09282227 12.19262695 3.09282227 12.19262695 3.08789062 13.54882812 C3.07951172 14.46083984 3.07113281 15.37285156 3.0625 16.3125 C3.05798828 17.24384766 3.05347656 18.17519531 3.04882812 19.13476562 C3.03709234 21.42324373 3.02067363 23.71158808 3 26 C2.01 25.34 1.02 24.68 0 24 C-0.34057617 21.56982422 -0.34057617 21.56982422 -0.29296875 18.5546875 C-0.28330078 17.47832031 -0.27363281 16.40195312 -0.26367188 15.29296875 C-0.23853516 14.16503906 -0.21339844 13.03710938 -0.1875 11.875 C-0.17396484 10.73933594 -0.16042969 9.60367188 -0.14648438 8.43359375 C-0.11104319 5.62192613 -0.06163517 2.81119583 0 0 Z " fill="#BAC5E7" transform="translate(272,554)"/>
<path d="M0 0 C0.99 0.33 1.98 0.66 3 1 C1.16776682 2.68870825 -0.66552624 4.37622787 -2.5 6.0625 C-3.04374268 6.56257568 -3.58748535 7.06265137 -4.14770508 7.57788086 C-7.89438724 11.01358453 -11.69439035 14.3747529 -15.57421875 17.66015625 C-17.12574904 18.96354821 -17.12574904 18.96354821 -18 21 C-18.66 20.67 -19.32 20.34 -20 20 C-17.40939267 15.77826953 -14.93414687 12.97459885 -11 10 C-10.13375 9.113125 -9.2675 8.22625 -8.375 7.3125 C-6 5 -6 5 -3 4 C-3 3.34 -3 2.68 -3 2 C-2.01 1.34 -1.02 0.68 0 0 Z " fill="#6593E2" transform="translate(291,532)"/>
<path d="M0 0 C1.56394167 2.34591251 2.6243912 4.33744331 3.75 6.875 C5.80076651 11.0852858 8.23808044 13.2640585 12 16 C11.67 16.99 11.34 17.98 11 19 C9.36525411 17.61559342 7.74254338 16.21696755 6.125 14.8125 C5.22007812 14.03519531 4.31515625 13.25789062 3.3828125 12.45703125 C0.97509625 9.97432056 -0.08664307 8.30548222 -1 5 C-0.625 2.1875 -0.625 2.1875 0 0 Z " fill="#8496D1" transform="translate(273,577)"/>
<path d="M0 0 C5 5 5 5 6.5625 6.625 C9.41912019 9.35741931 12.42018083 11.3379411 16 13 C15.01 13.495 15.01 13.495 14 14 C12.28181621 13.30611808 10.56608941 12.60285496 8.8828125 11.828125 C6.78718418 10.86551596 6.78718418 10.86551596 3.625 9.9375 C1 9 1 9 0 7 C-0.04022391 4.6670134 -0.04320247 2.33293334 0 0 Z " fill="#204896" transform="translate(169,595)"/>
<path d="M0 0 C1.31457484 3.94372453 0.76330208 5.25298309 -1 9 C-3.17842568 11.21356158 -5.5222087 13.13171886 -8 15 C-8.33 13.68 -8.66 12.36 -9 11 C-7.7625 10.1646875 -7.7625 10.1646875 -6.5 9.3125 C-3.7254586 7.25072867 -3.7254586 7.25072867 -3.6875 4.25 C-3.790625 3.5075 -3.89375 2.765 -4 2 C-2.68 1.34 -1.36 0.68 0 0 Z " fill="#2B64C0" transform="translate(269,599)"/>
<path d="M0 0 C0.825 0.495 1.65 0.99 2.5 1.5 C6.75488188 3.32352081 9.42308671 3.23673689 14 3 C14 2.34 14 1.68 14 1 C14.66 1 15.32 1 16 1 C15.63206382 3.66753731 15.18001672 4.81998328 13.25 6.75 C10.62056017 8.21079991 8.9625559 8.24687966 6 8 C5.67 6.68 5.34 5.36 5 4 C4.01 4 3.02 4 2 4 C2 3.34 2 2.68 2 2 C1.34 2 0.68 2 0 2 C0 1.34 0 0.68 0 0 Z " fill="#2760BB" transform="translate(290,605)"/>
<path d="M0 0 C0.66 0.33 1.32 0.66 2 1 C-8.18906606 12.70615034 -8.18906606 12.70615034 -15 17 C-11.69276967 9.88867845 -6.01650648 4.859486 0 0 Z " fill="#E9EDF8" transform="translate(295,531)"/>
<path d="M0 0 C4.34415669 0.48268408 6.21227649 1.65473178 9 5 C10.04349839 6.63978318 11.05607981 8.30094366 12 10 C9.83125748 9.49396008 8.00032373 9.00016187 6 8 C6 7.34 6 6.68 6 6 C5.38125 5.7525 4.7625 5.505 4.125 5.25 C1.64931313 3.79371361 1.04874998 2.62187494 0 0 Z " fill="#2552A6" transform="translate(278,595)"/>
<path d="M0 0 C0.33 0 0.66 0 1 0 C1.05384521 2.29141286 1.09272087 4.58318188 1.125 6.875 C1.14820313 8.15117188 1.17140625 9.42734375 1.1953125 10.7421875 C1 14 1 14 -1 16 C-1.66 15.34 -2.32 14.68 -3 14 C-2.79296875 10.99609375 -2.79296875 10.99609375 -2.1875 7.4375 C-1.99542969 6.26058594 -1.80335938 5.08367188 -1.60546875 3.87109375 C-1 1 -1 1 0 0 Z " fill="#798BCD" transform="translate(265,587)"/>
<path d="M0 0 C0.33 0 0.66 0 1 0 C1.33 3.63 1.66 7.26 2 11 C2.99 11.33 3.98 11.66 5 12 C4.67 14.64 4.34 17.28 4 20 C3.67 20 3.34 20 3 20 C3 17.69 3 15.38 3 13 C2.34 13 1.68 13 1 13 C-0.32229189 10.35541621 -0.09677194 8.32238699 -0.0625 5.375 C-0.05347656 4.37210938 -0.04445312 3.36921875 -0.03515625 2.3359375 C-0.02355469 1.56507813 -0.01195312 0.79421875 0 0 Z " fill="#3168C2" transform="translate(164,583)"/>
<path d="M0 0 C0.66 0.33 1.32 0.66 2 1 C1.59007812 1.54269531 1.18015625 2.08539062 0.7578125 2.64453125 C-0.05042969 3.71767578 -0.05042969 3.71767578 -0.875 4.8125 C-1.40867187 5.52019531 -1.94234375 6.22789062 -2.4921875 6.95703125 C-3.70814781 8.60456297 -4.86416141 10.29624211 -6 12 C-6.9375 9.9375 -6.9375 9.9375 -7 7 C-4.92608855 4.37232162 -2.52709628 2.18678905 0 0 Z " fill="#D3DAF0" transform="translate(280,544)"/>
<path d="M0 0 C0.99 0 1.98 0 3 0 C4.32 2.97 5.64 5.94 7 9 C5.68 8.67 4.36 8.34 3 8 C0 2.96428571 0 2.96428571 0 0 Z " fill="#8395D1" transform="translate(167,588)"/>
<path d="M0 0 C0.66 0.33 1.32 0.66 2 1 C1.50628906 1.48210938 1.01257813 1.96421875 0.50390625 2.4609375 C-0.13675781 3.09257813 -0.77742188 3.72421875 -1.4375 4.375 C-2.07558594 5.00148438 -2.71367187 5.62796875 -3.37109375 6.2734375 C-5.07882176 7.91723061 -5.07882176 7.91723061 -6 10 C-6.66 9.67 -7.32 9.34 -8 9 C-5.68462045 5.27885429 -3.71420527 2.38770339 0 0 Z " fill="#5788DB" transform="translate(279,543)"/>
<path d="M0 0 C0.99 0.33 1.98 0.66 3 1 C3.33 4.63 3.66 8.26 4 12 C2.09681116 9.14521674 1.5380901 7.58058692 0.875 4.3125 C0.70742188 3.50425781 0.53984375 2.69601562 0.3671875 1.86328125 C0.24601562 1.24839844 0.12484375 0.63351562 0 0 Z " fill="#4C79CA" transform="translate(265,544)"/>
<path d="M0 0 C3.53600465 1.91135386 5.78972846 3.62642766 8 7 C5.125 6.3125 5.125 6.3125 2 5 C0.625 2.375 0.625 2.375 0 0 Z " fill="#1A3577" transform="translate(286,598)"/>
<path d="M0 0 C3.26460973 1.80412643 4.88929795 2.83394693 7 6 C3.47190093 6 2.53184488 5.35723489 0 3 C0 2.01 0 1.02 0 0 Z " fill="#798DCF" transform="translate(285,594)"/>
<path d="M0 0 C1.9451 2.91765 2.45276317 4.62537285 3 8 C2.01 8 1.02 8 0 8 C-0.38063221 5.6739143 -0.71269945 3.33944736 -1 1 C-0.67 0.67 -0.34 0.34 0 0 Z " fill="#96A5D8" transform="translate(273,577)"/>
<path d="M0 0 C3.65316671 1.24976756 4.78065836 1.67098753 7 5 C7 5.99 7 6.98 7 8 C6.34 8 5.68 8 5 8 C3.1402289 5.40759181 1.42794577 2.85589153 0 0 Z " fill="#6490DD" transform="translate(259,536)"/>
<path d="M0 0 C0.99 0.33 1.98 0.66 3 1 C1.25 3.0625 1.25 3.0625 -1 5 C-3.25 4.75 -3.25 4.75 -5 4 C-4.34 4 -3.68 4 -3 4 C-3 3.34 -3 2.68 -3 2 C-2.01 1.34 -1.02 0.68 0 0 Z " fill="#6C9AE6" transform="translate(291,532)"/>
</svg>
